<svg id="Layer_1" data-name="Layer 1" xmlns="http://www.w3.org/2000/svg" viewBox="0 0 500 431">
  <title>icon</title>
  <path d="M497.87,80.35q7.06-37.57-9.28-58.35-23-28.77-82.69-19.92a97.74,97.74,0,0,0-18.12,5.55q-10.64,4.21-25.44,13.48a216,216,0,0,0-28.5,21.44Q320.1,54.71,307.53,73.48a163.94,163.94,0,0,0-19.7,40.46q35.4-3.09,50.2,7.09t11.7,43.75q-2.18,23-23,63.22-19,34.53-31.37,43.78-19.49,14.17-38.49-6.19-10.16-10.59-16.57-28.5a162.53,162.53,0,0,1-8.38-32.3c-1.35-9.58-2.8-22-4.45-37.14s-2.87-25.69-3.74-31.59q-10.2-57.06-15-72.51A108.46,108.46,0,0,0,193,33q-10.4-14.12-22.34-17.67-25.19-7.06-56.16,11.06Q90.67,40.53,54.16,73.25T0,118.36v3.09A25.82,25.82,0,0,1,11.28,133c2.8,5.29,6,8.25,9.51,8.83q9.28,1.35,24.08-3.74t25.66-4.64c7.22.29,13.31,4.71,18.34,13.25a98.67,98.67,0,0,1,8.19,17c2.19,6.06,4.42,13.12,6.61,21.21s4.06,14.09,5.55,17.93q7.5,20.31,23.44,82.66,15.91,64.56,25.18,87.11,18.57,43.76,45.55,55.26a72.25,72.25,0,0,0,37.59.68,117.89,117.89,0,0,0,33.59-13.93q57.93-34,110.55-104.78a674.43,674.43,0,0,0,76.25-129.34Q491.65,112.63,497.87,80.35Z"/>
</svg>
